<?xml version="1.0" standalone="yes"?><svg xmlns="http://www.w3.org/2000/svg" version="1.1" width="231" height="231" viewBox="0 0 231 231" shape-rendering="crispEdges"><rect x="0" y="0" width="231" height="231" fill="#fff"/><path fill="#000" d="M28 28h7v7H28V28M35 28h7v7H35V28M42 28h7v7H42V28M49 28h7v7H49V28M56 28h7v7H56V28M63 28h7v7H63V28M70 28h7v7H70V28M91 28h7v7H91V28M112 28h7v7H112V28M119 28h7v7H119V28M140 28h7v7H140V28M154 28h7v7H154V28M161 28h7v7H161V28M168 28h7v7H168V28M175 28h7v7H175V28M182 28h7v7H182V28M189 28h7v7H189V28M196 28h7v7H196V28M28 35h7v7H28V35M70 35h7v7H70V35M91 35h7v7H91V35M98 35h7v7H98V35M105 35h7v7H105V35M119 35h7v7H119V35M126 35h7v7H126V35M133 35h7v7H133V35M140 35h7v7H140V35M154 35h7v7H154V35M196 35h7v7H196V35M28 42h7v7H28V42M42 42h7v7H42V42M49 42h7v7H49V42M56 42h7v7H56V42M70 42h7v7H70V42M84 42h7v7H84V42M105 42h7v7H105V42M133 42h7v7H133V42M154 42h7v7H154V42M168 42h7v7H168V42M175 42h7v7H175V42M182 42h7v7H182V42M196 42h7v7H196V42M28 49h7v7H28V49M42 49h7v7H42V49M49 49h7v7H49V49M56 49h7v7H56V49M70 49h7v7H70V49M84 49h7v7H84V49M105 49h7v7H105V49M112 49h7v7H112V49M119 49h7v7H119V49M126 49h7v7H126V49M133 49h7v7H133V49M154 49h7v7H154V49M168 49h7v7H168V49M175 49h7v7H175V49M182 49h7v7H182V49M196 49h7v7H196V49M28 56h7v7H28V56M42 56h7v7H42V56M49 56h7v7H49V56M56 56h7v7H56V56M70 56h7v7H70V56M84 56h7v7H84V56M91 56h7v7H91V56M98 56h7v7H98V56M112 56h7v7H112V56M140 56h7v7H140V56M154 56h7v7H154V56M168 56h7v7H168V56M175 56h7v7H175V56M182 56h7v7H182V56M196 56h7v7H196V56M28 63h7v7H28V63M70 63h7v7H70V63M84 63h7v7H84V63M91 63h7v7H91V63M119 63h7v7H119V63M126 63h7v7H126V63M133 63h7v7H133V63M154 63h7v7H154V63M196 63h7v7H196V63M28 70h7v7H28V70M35 70h7v7H35V70M42 70h7v7H42V70M49 70h7v7H49V70M56 70h7v7H56V70M63 70h7v7H63V70M70 70h7v7H70V70M84 70h7v7H84V70M98 70h7v7H98V70M112 70h7v7H112V70M126 70h7v7H126V70M140 70h7v7H140V70M154 70h7v7H154V70M161 70h7v7H161V70M168 70h7v7H168V70M175 70h7v7H175V70M182 70h7v7H182V70M189 70h7v7H189V70M196 70h7v7H196V70M84 77h7v7H84V77M112 77h7v7H112V77M126 77h7v7H126V77M133 77h7v7H133V77M140 77h7v7H140V77M28 84h7v7H28V84M42 84h7v7H42V84M49 84h7v7H49V84M56 84h7v7H56V84M63 84h7v7H63V84M70 84h7v7H70V84M98 84h7v7H98V84M119 84h7v7H119V84M154 84h7v7H154V84M161 84h7v7H161V84M168 84h7v7H168V84M175 84h7v7H175V84M182 84h7v7H182V84M28 91h7v7H28V91M35 91h7v7H35V91M49 91h7v7H49V91M63 91h7v7H63V91M77 91h7v7H77V91M84 91h7v7H84V91M98 91h7v7H98V91M119 91h7v7H119V91M140 91h7v7H140V91M161 91h7v7H161V91M189 91h7v7H189V91M35 98h7v7H35V98M42 98h7v7H42V98M70 98h7v7H70V98M84 98h7v7H84V98M91 98h7v7H91V98M119 98h7v7H119V98M126 98h7v7H126V98M133 98h7v7H133V98M140 98h7v7H140V98M147 98h7v7H147V98M161 98h7v7H161V98M175 98h7v7H175V98M189 98h7v7H189V98M196 98h7v7H196V98M49 105h7v7H49V105M63 105h7v7H63V105M84 105h7v7H84V105M91 105h7v7H91V105M105 105h7v7H105V105M133 105h7v7H133V105M140 105h7v7H140V105M154 105h7v7H154V105M161 105h7v7H161V105M196 105h7v7H196V105M28 112h7v7H28V112M42 112h7v7H42V112M63 112h7v7H63V112M70 112h7v7H70V112M77 112h7v7H77V112M84 112h7v7H84V112M91 112h7v7H91V112M98 112h7v7H98V112M105 112h7v7H105V112M119 112h7v7H119V112M126 112h7v7H126V112M147 112h7v7H147V112M154 112h7v7H154V112M168 112h7v7H168V112M182 112h7v7H182V112M189 112h7v7H189V112M196 112h7v7H196V112M28 119h7v7H28V119M35 119h7v7H35V119M49 119h7v7H49V119M84 119h7v7H84V119M91 119h7v7H91V119M112 119h7v7H112V119M119 119h7v7H119V119M161 119h7v7H161V119M175 119h7v7H175V119M189 119h7v7H189V119M28 126h7v7H28V126M42 126h7v7H42V126M63 126h7v7H63V126M70 126h7v7H70V126M77 126h7v7H77V126M91 126h7v7H91V126M98 126h7v7H98V126M119 126h7v7H119V126M126 126h7v7H126V126M133 126h7v7H133V126M161 126h7v7H161V126M168 126h7v7H168V126M175 126h7v7H175V126M189 126h7v7H189V126M196 126h7v7H196V126M28 133h7v7H28V133M42 133h7v7H42V133M56 133h7v7H56V133M63 133h7v7H63V133M77 133h7v7H77V133M84 133h7v7H84V133M112 133h7v7H112V133M126 133h7v7H126V133M147 133h7v7H147V133M154 133h7v7H154V133M161 133h7v7H161V133M168 133h7v7H168V133M196 133h7v7H196V133M28 140h7v7H28V140M42 140h7v7H42V140M63 140h7v7H63V140M70 140h7v7H70V140M91 140h7v7H91V140M98 140h7v7H98V140M112 140h7v7H112V140M119 140h7v7H119V140M126 140h7v7H126V140M133 140h7v7H133V140M140 140h7v7H140V140M147 140h7v7H147V140M154 140h7v7H154V140M161 140h7v7H161V140M168 140h7v7H168V140M182 140h7v7H182V140M84 147h7v7H84V147M91 147h7v7H91V147M98 147h7v7H98V147M126 147h7v7H126V147M140 147h7v7H140V147M168 147h7v7H168V147M175 147h7v7H175V147M28 154h7v7H28V154M35 154h7v7H35V154M42 154h7v7H42V154M49 154h7v7H49V154M56 154h7v7H56V154M63 154h7v7H63V154M70 154h7v7H70V154M91 154h7v7H91V154M105 154h7v7H105V154M112 154h7v7H112V154M119 154h7v7H119V154M140 154h7v7H140V154M154 154h7v7H154V154M168 154h7v7H168V154M182 154h7v7H182V154M189 154h7v7H189V154M196 154h7v7H196V154M28 161h7v7H28V161M70 161h7v7H70V161M84 161h7v7H84V161M91 161h7v7H91V161M98 161h7v7H98V161M105 161h7v7H105V161M140 161h7v7H140V161M168 161h7v7H168V161M175 161h7v7H175V161M196 161h7v7H196V161M28 168h7v7H28V168M42 168h7v7H42V168M49 168h7v7H49V168M56 168h7v7H56V168M70 168h7v7H70V168M84 168h7v7H84V168M91 168h7v7H91V168M105 168h7v7H105V168M112 168h7v7H112V168M119 168h7v7H119V168M126 168h7v7H126V168M133 168h7v7H133V168M140 168h7v7H140V168M147 168h7v7H147V168M154 168h7v7H154V168M161 168h7v7H161V168M168 168h7v7H168V168M182 168h7v7H182V168M28 175h7v7H28V175M42 175h7v7H42V175M49 175h7v7H49V175M56 175h7v7H56V175M70 175h7v7H70V175M84 175h7v7H84V175M91 175h7v7H91V175M112 175h7v7H112V175M147 175h7v7H147V175M154 175h7v7H154V175M168 175h7v7H168V175M175 175h7v7H175V175M182 175h7v7H182V175M189 175h7v7H189V175M196 175h7v7H196V175M28 182h7v7H28V182M42 182h7v7H42V182M49 182h7v7H49V182M56 182h7v7H56V182M70 182h7v7H70V182M84 182h7v7H84V182M91 182h7v7H91V182M98 182h7v7H98V182M119 182h7v7H119V182M126 182h7v7H126V182M133 182h7v7H133V182M140 182h7v7H140V182M147 182h7v7H147V182M175 182h7v7H175V182M182 182h7v7H182V182M196 182h7v7H196V182M28 189h7v7H28V189M70 189h7v7H70V189M91 189h7v7H91V189M105 189h7v7H105V189M126 189h7v7H126V189M133 189h7v7H133V189M140 189h7v7H140V189M161 189h7v7H161V189M168 189h7v7H168V189M175 189h7v7H175V189M196 189h7v7H196V189M28 196h7v7H28V196M35 196h7v7H35V196M42 196h7v7H42V196M49 196h7v7H49V196M56 196h7v7H56V196M63 196h7v7H63V196M70 196h7v7H70V196M84 196h7v7H84V196M98 196h7v7H98V196M105 196h7v7H105V196M112 196h7v7H112V196M119 196h7v7H119V196M154 196h7v7H154V196M161 196h7v7H161V196M168 196h7v7H168V196M175 196h7v7H175V196M182 196h7v7H182V196M189 196h7v7H189V196M196 196h7v7H196V196"/></svg>